# xmcd
#
# Track frame offsets: 
#        150
#        23719
#        43996
#        61053
#        76632
#        95290
#        115216
#        133019
#        153066
#        167556
#        184687
#        208138
#        225475
#        245856
#        263590
#        276905
#
# Disc length: 3926 seconds
#
# Revision: 1
# Processed by: cddbd v1.5.2PL0 Copyright (c) Steve Scherf et al.
# Submitted via: ExactAudioCopy v0.95b3
#
DISCID=cd0f5410
DTITLE=The Flirts - Physical Attraction [CD2]
DYEAR=2001
DGENRE=Disco
TTITLE0=Put Your Body In Motion
TTITLE1=Temptation
TTITLE2=Take A Chance On Me
TTITLE3=Gimme Your Lovin'
TTITLE4=Too Hot To Handle
TTITLE5=A Love So Right
TTITLE6=So Untrue
TTITLE7=Love And Desire
TTITLE8=Boy Candy
TTITLE9=Roller Coaster
TTITLE10=Lover Boy
TTITLE11=Ready To Go Steady
TTITLE12=A Thing Called Love
TTITLE13=Emergency
TTITLE14=On The Beach
TTITLE15=All You Ever Think About Is Sex
EXTD=
EXTT0=
EXTT1=
EXTT2=
EXTT3=
EXTT4=
EXTT5=
EXTT6=
EXTT7=
EXTT8=
EXTT9=
EXTT10=
EXTT11=
EXTT12=
EXTT13=
EXTT14=
EXTT15=
PLAYORDER=
